<svg width="22" height="22" viewBox="0 0 22 22" fill="none" xmlns="http://www.w3.org/2000/svg">
<path d="M21.1243 9.19935C21.1595 9.13418 21.1842 9.06337 21.1976 8.98974L21.9832 4.57692C22.0332 4.28433 21.9708 3.98281 21.8097 3.73868C21.6486 3.49454 21.4021 3.32781 21.1243 3.27514C20.8465 3.22247 20.5602 3.2882 20.3284 3.45785C20.0966 3.6275 19.9383 3.88718 19.8883 4.17977L19.5008 6.38618C18.6289 4.70921 17.326 3.32502 15.7414 2.39234C14.1568 1.45966 12.3547 1.01627 10.5418 1.11301C8.72885 1.20975 6.97852 1.84271 5.49153 2.93929C4.00454 4.03588 2.84109 5.55168 2.13462 7.31287C2.03099 7.58356 2.03342 7.88648 2.1414 8.15528C2.24937 8.42409 2.45408 8.63687 2.7107 8.74703C2.83854 8.80279 2.9756 8.8313 3.11397 8.83094C3.25234 8.83058 3.38927 8.80135 3.51685 8.74493C3.64443 8.68852 3.76013 8.60603 3.85727 8.50225C3.95441 8.39846 4.03107 8.27544 4.08281 8.14027C4.64688 6.68051 5.61703 5.43463 6.86577 4.56633C8.11452 3.69802 9.58345 3.24791 11.0796 3.27514C12.4027 3.26864 13.7041 3.63048 14.8518 4.32402C15.9995 5.01757 16.9529 6.0182 17.6154 7.22461L15.8872 6.92675C15.7496 6.90357 15.6091 6.90915 15.4736 6.94317C15.3381 6.9772 15.2103 7.039 15.0975 7.12505C14.9847 7.21111 14.889 7.31972 14.8161 7.4447C14.7431 7.56967 14.6942 7.70856 14.6722 7.85344C14.6502 7.99831 14.6555 8.14634 14.6878 8.28905C14.7201 8.43177 14.7788 8.56639 14.8605 8.68522C14.9422 8.80405 15.0453 8.90477 15.164 8.98163C15.2826 9.05849 15.4145 9.10998 15.552 9.13316L20.0035 9.91643H20.1711C20.2927 9.91797 20.4135 9.89552 20.5273 9.85024C20.5656 9.8349 20.6011 9.81248 20.632 9.78405C20.7071 9.75463 20.7777 9.71375 20.8415 9.66269L20.9253 9.55237C20.9796 9.49881 21.0287 9.43968 21.0719 9.37586C21.0974 9.32 21.115 9.26055 21.1243 9.19935Z" fill="#3B64A1"/>
<path d="M19.2599 13.2812C19.1314 13.2258 18.9937 13.1978 18.8549 13.1989C18.716 13.2 18.5787 13.2302 18.4511 13.2876C18.3234 13.3451 18.2078 13.4288 18.1111 13.5337C18.0144 13.6387 17.9385 13.7629 17.8878 13.899C17.3197 15.3434 16.3532 16.575 15.1133 17.4345C13.8734 18.294 12.4171 18.7418 10.9329 18.72C9.60972 18.7265 8.30839 18.3647 7.16066 17.6711C6.01293 16.9776 5.05955 15.9769 4.39704 14.7705L6.12527 15.0684H6.29286C6.57065 15.0918 6.8459 14.998 7.05804 14.8077C7.27018 14.6173 7.40185 14.346 7.42407 14.0534C7.44629 13.7609 7.35725 13.471 7.17654 13.2475C6.99583 13.0241 6.73824 12.8854 6.46045 12.862L2.00893 12.1008C1.89467 12.0786 1.77753 12.0786 1.66328 12.1008H1.57949C1.46095 12.134 1.34792 12.1861 1.24431 12.2552C1.17369 12.3127 1.11033 12.3794 1.05578 12.4538L0.96151 12.5641C0.929135 12.6306 0.904516 12.701 0.88819 12.7737C0.851485 12.8301 0.8265 12.894 0.814871 12.9613L0.0293088 17.3741C-0.00433283 17.5207 -0.00906985 17.673 0.0153904 17.8217C0.0398507 17.9703 0.0929886 18.1121 0.17152 18.2382C0.250052 18.3643 0.352309 18.4722 0.471973 18.555C0.591636 18.6379 0.726164 18.6941 0.867242 18.72H1.05578C1.30379 18.7243 1.5452 18.6357 1.73701 18.47C1.92881 18.3044 2.05858 18.0724 2.10319 17.8154L2.49074 15.609C3.36168 17.2863 4.66382 18.6712 6.24783 19.6048C7.83184 20.5384 9.63358 20.9828 11.4465 20.8873C13.2593 20.7917 15.0099 20.1599 16.4975 19.0644C17.9851 17.9688 19.1494 16.4539 19.8569 14.6933C19.9529 14.4225 19.9441 14.1228 19.8325 13.8587C19.7208 13.5946 19.5152 13.3873 19.2599 13.2812Z" fill="#3B64A1"/>
</svg>
