<svg width="11" height="7" viewBox="0 0 11 7" fill="none" xmlns="http://www.w3.org/2000/svg">
<path d="M5.4784 6.49998C5.33432 6.50081 5.19149 6.4735 5.05811 6.41962C4.92472 6.36575 4.8034 6.28637 4.70111 6.18603L0.321967 1.85566C0.219891 1.75472 0.13892 1.63489 0.0836768 1.50301C0.0284336 1.37112 2.15109e-09 1.22977 0 1.08702C-2.15109e-09 0.944272 0.0284336 0.802919 0.0836768 0.671036C0.13892 0.539152 0.219891 0.41932 0.321967 0.318381C0.424043 0.217442 0.545225 0.137372 0.678594 0.0827439C0.811963 0.0281159 0.954907 -2.12713e-09 1.09926 0C1.24362 2.12714e-09 1.38657 0.0281159 1.51994 0.0827439C1.6533 0.137372 1.77449 0.217442 1.87656 0.318381L5.4784 3.90176L9.09119 0.459118C9.19191 0.34838 9.31464 0.259381 9.45172 0.197689C9.5888 0.135996 9.73728 0.102936 9.88787 0.100577C10.0385 0.098218 10.1879 0.126609 10.3269 0.183977C10.4659 0.241344 10.5914 0.326454 10.6956 0.433982C10.7998 0.54151 10.8805 0.669143 10.9325 0.808899C10.9846 0.948656 11.0069 1.09753 10.9981 1.24621C10.9893 1.39489 10.9496 1.54017 10.8815 1.67298C10.8133 1.80579 10.7182 1.92326 10.602 2.01805L6.22286 6.19686C6.02265 6.38773 5.75648 6.49611 5.4784 6.49998Z" fill="#40B526"/>
</svg>
