<svg width="32" height="32" viewBox="0 0 32 32" fill="none" xmlns="http://www.w3.org/2000/svg">
<path d="M23.2727 10.1819H21.8182V7.43281C21.8182 5.88973 21.2052 4.40985 20.1141 3.31873C19.023 2.22761 17.5431 1.61462 16 1.61462C14.4569 1.61462 12.9771 2.22761 11.8859 3.31873C10.7948 4.40985 10.1818 5.88973 10.1818 7.43281V10.1819H8.72728C7.56998 10.1819 6.46007 10.6416 5.64173 11.46C4.82339 12.2783 4.36365 13.3882 4.36365 14.5455V26.1819C4.36365 27.3392 4.82339 28.4491 5.64173 29.2675C6.46007 30.0858 7.56998 30.5455 8.72728 30.5455H23.2727C24.43 30.5455 25.54 30.0858 26.3583 29.2675C27.1766 28.4491 27.6364 27.3392 27.6364 26.1819V14.5455C27.6364 13.3882 27.1766 12.2783 26.3583 11.46C25.54 10.6416 24.43 10.1819 23.2727 10.1819ZM13.0909 7.43281C13.0714 6.64051 13.3665 5.87273 13.9117 5.29753C14.4569 4.72233 15.2078 4.38656 16 4.36372C16.7922 4.38656 17.5431 4.72233 18.0883 5.29753C18.6335 5.87273 18.9287 6.64051 18.9091 7.43281V10.1819H13.0909V7.43281ZM24.7273 26.1819C24.7273 26.5677 24.574 26.9376 24.3013 27.2104C24.0285 27.4832 23.6585 27.6364 23.2727 27.6364H8.72728C8.34151 27.6364 7.97155 27.4832 7.69877 27.2104C7.42599 26.9376 7.27274 26.5677 7.27274 26.1819V14.5455C7.27274 14.1598 7.42599 13.7898 7.69877 13.517C7.97155 13.2442 8.34151 13.091 8.72728 13.091H23.2727C23.6585 13.091 24.0285 13.2442 24.3013 13.517C24.574 13.7898 24.7273 14.1598 24.7273 14.5455V26.1819Z" fill="white"/>
<path d="M16 16.0002C15.137 16.0002 14.2933 16.2562 13.5757 16.7356C12.8581 17.2151 12.2988 17.8966 11.9685 18.694C11.6383 19.4913 11.5518 20.3687 11.7202 21.2152C11.8886 22.0616 12.3042 22.8392 12.9144 23.4494C13.5247 24.0597 14.3022 24.4753 15.1487 24.6437C15.9952 24.812 16.8725 24.7256 17.6699 24.3954C18.4672 24.0651 19.1488 23.5058 19.6282 22.7882C20.1077 22.0706 20.3636 21.2269 20.3636 20.3639C20.3636 19.2066 19.9039 18.0967 19.0856 17.2783C18.2672 16.46 17.1573 16.0002 16 16.0002ZM16 21.8184C15.7123 21.8184 15.4311 21.7331 15.1919 21.5733C14.9527 21.4135 14.7663 21.1863 14.6562 20.9205C14.5461 20.6547 14.5173 20.3623 14.5734 20.0801C14.6295 19.798 14.7681 19.5388 14.9715 19.3354C15.1749 19.1319 15.4341 18.9934 15.7162 18.9373C15.9984 18.8812 16.2909 18.91 16.5566 19.0201C16.8224 19.1301 17.0496 19.3166 17.2094 19.5558C17.3692 19.795 17.4546 20.0762 17.4546 20.3639C17.4546 20.7497 17.3013 21.1196 17.0285 21.3924C16.7557 21.6652 16.3858 21.8184 16 21.8184Z" fill="white"/>
</svg>
