<svg width="22" height="22" viewBox="0 0 22 22" fill="none" xmlns="http://www.w3.org/2000/svg">
<path d="M11 1C9.02219 1 7.08879 1.58649 5.4443 2.6853C3.79981 3.78412 2.51809 5.3459 1.76121 7.17317C1.00433 9.00043 0.806299 11.0111 1.19215 12.9509C1.578 14.8907 2.53041 16.6725 3.92894 18.0711C5.32746 19.4696 7.10929 20.422 9.0491 20.8079C10.9889 21.1937 12.9996 20.9957 14.8268 20.2388C16.6541 19.4819 18.2159 18.2002 19.3147 16.5557C20.4135 14.9112 21 12.9778 21 11C21 9.68678 20.7413 8.38642 20.2388 7.17317C19.7363 5.95991 18.9997 4.85752 18.0711 3.92893C17.1425 3.00035 16.0401 2.26375 14.8268 1.7612C13.6136 1.25866 12.3132 1 11 1ZM11 19C9.41775 19 7.87104 18.5308 6.55544 17.6518C5.23985 16.7727 4.21447 15.5233 3.60897 14.0615C3.00347 12.5997 2.84504 10.9911 3.15372 9.43928C3.4624 7.88743 4.22433 6.46197 5.34315 5.34315C6.46197 4.22433 7.88743 3.4624 9.43928 3.15372C10.9911 2.84504 12.5997 3.00346 14.0615 3.60896C15.5233 4.21447 16.7727 5.23984 17.6518 6.55544C18.5308 7.87103 19 9.41775 19 11C19 13.1217 18.1572 15.1566 16.6569 16.6569C15.1566 18.1571 13.1217 19 11 19Z" fill="#3B64A1"/>
<path d="M11 4.99995C10.0717 4.99995 9.1815 5.36869 8.52513 6.02507C7.86875 6.68145 7.5 7.57169 7.5 8.49995C7.5 8.76516 7.60536 9.01952 7.79289 9.20705C7.98043 9.39459 8.23478 9.49995 8.5 9.49995C8.76522 9.49995 9.01957 9.39459 9.20711 9.20705C9.39464 9.01952 9.5 8.76516 9.5 8.49995C9.5 8.20327 9.58797 7.91326 9.7528 7.66659C9.91762 7.41992 10.1519 7.22766 10.426 7.11413C10.7001 7.00059 11.0017 6.97089 11.2926 7.02877C11.5836 7.08664 11.8509 7.22951 12.0607 7.43928C12.2704 7.64906 12.4133 7.91634 12.4712 8.20731C12.5291 8.49828 12.4994 8.79988 12.3858 9.07397C12.2723 9.34806 12.08 9.58233 11.8334 9.74715C11.5867 9.91197 11.2967 9.99995 11 9.99995C10.7348 9.99995 10.4804 10.1053 10.2929 10.2928C10.1054 10.4804 10 10.7347 10 10.9999V12.9999C10 13.2652 10.1054 13.5195 10.2929 13.7071C10.4804 13.8946 10.7348 13.9999 11 13.9999C11.2652 13.9999 11.5196 13.8946 11.7071 13.7071C11.8946 13.5195 12 13.2652 12 12.9999V11.8399C12.8081 11.604 13.5037 11.0838 13.9585 10.3754C14.4133 9.66696 14.5967 8.81801 14.4749 7.98501C14.3532 7.15201 13.9344 6.3911 13.2958 5.84254C12.6572 5.29397 11.8418 4.99472 11 4.99995Z" fill="#3B64A1"/>
<path d="M11 17C11.5523 17 12 16.5523 12 16C12 15.4477 11.5523 15 11 15C10.4477 15 10 15.4477 10 16C10 16.5523 10.4477 17 11 17Z" fill="#3B64A1"/>
</svg>
