<svg width="133" height="133" viewBox="0 0 133 133" fill="none" xmlns="http://www.w3.org/2000/svg">
<path d="M80.0905 1.88768C82.3881 1.10801 84.9292 1.78888 86.5292 3.61292L91.7161 9.52623C92.7651 10.7222 94.2462 11.4526 95.8337 11.5568L103.683 12.0721C106.104 12.231 108.191 13.8325 108.971 16.1299L111.5 23.5781C112.012 25.0845 113.1 26.326 114.527 27.0298L121.581 30.5095C123.757 31.5829 125.073 33.8611 124.914 36.2823L124.401 44.1313C124.297 45.7188 124.828 47.2825 125.876 48.4787L131.062 54.3931C132.662 56.2175 133.005 58.8257 131.932 61.0019L128.454 68.0569C127.751 69.4838 127.643 71.1316 128.154 72.6381L130.681 80.0868C131.461 82.3844 130.78 84.9255 128.956 86.5254L123.043 91.7123C121.847 92.7614 121.116 94.2425 121.012 95.8299L120.497 103.679C120.338 106.1 118.737 108.187 116.439 108.967L108.991 111.496C107.485 112.008 106.243 113.097 105.539 114.523L102.06 121.578C100.986 123.754 98.7079 125.069 96.2868 124.911L88.4377 124.397C86.8503 124.293 85.2865 124.824 84.0903 125.873L78.1759 131.058C76.3516 132.658 73.7434 133.001 71.5672 131.929L64.5122 128.45C63.0853 127.747 61.4374 127.639 59.9309 128.15L52.4823 130.678C50.1846 131.457 47.6436 130.776 46.0436 128.952L40.8567 123.039C39.8076 121.843 38.3266 121.113 36.7391 121.009L28.8902 120.493C26.4691 120.334 24.382 118.733 23.6018 116.435L21.0727 108.987C20.5611 107.481 19.4723 106.239 18.0456 105.535L10.9913 102.056C8.81531 100.982 7.49995 98.7042 7.65839 96.283L8.17202 88.434C8.2759 86.8465 7.74508 85.2828 6.69628 84.0866L1.51059 78.1722C-0.0890026 76.3478 -0.432378 73.7396 0.64053 71.5634L4.11876 64.5084C4.82224 63.0815 4.93024 61.4337 4.41903 59.9272L1.89142 52.4785C1.11174 50.1809 1.79262 47.6398 3.61666 46.0399L9.52996 40.853C10.7259 39.8039 11.4563 38.3228 11.5605 36.7354L12.0758 28.8864C12.2347 26.4653 13.8362 24.3782 16.1337 23.5981L23.5818 21.0689C25.0882 20.5574 26.3298 19.4686 27.0335 18.0418L30.5132 10.9876C31.5866 8.81157 33.8649 7.49622 36.286 7.65466L44.135 8.16829C45.7225 8.27217 47.2863 7.74135 48.4824 6.69254L54.3968 1.50686C56.2212 -0.0927371 58.8294 -0.436112 61.0056 0.636795L68.0606 4.11503C69.4875 4.8185 71.1353 4.92651 72.6418 4.4153L80.0905 1.88768Z" fill="#3B64A1"/>
</svg>
