<svg width="133" height="134" viewBox="0 0 133 134" fill="none" xmlns="http://www.w3.org/2000/svg">
<path d="M100.144 33.0492C81.4959 14.4006 51.31 14.398 32.6589 33.0492C14.0101 51.6976 14.0072 81.8839 32.6589 100.535C51.3074 119.184 81.4932 119.186 100.144 100.535C118.793 81.8869 118.796 51.7004 100.144 33.0492Z" fill="white"/>
<path d="M113.267 19.927C87.3658 -5.97385 45.4411 -5.97748 19.5367 19.927C-6.36433 45.8276 -6.36847 87.753 19.5367 113.657C45.4375 139.558 87.3622 139.562 113.267 113.657C139.168 87.7571 139.172 45.8315 113.267 19.927V19.927ZM86.3346 71.0894L61.4482 90.4456C57.9118 93.1959 52.662 90.7012 52.662 86.1483V47.4361C52.662 42.9153 57.8775 40.3611 61.4482 43.1388L86.3346 62.495C89.1367 64.6747 89.1333 68.9124 86.3346 71.0894V71.0894Z" fill="#252D33"/>
</svg>
