<svg width="56" height="56" viewBox="0 0 56 56" fill="none" xmlns="http://www.w3.org/2000/svg">
<g clip-path="url(#clip0_24463_1128)">
<path d="M26.0269 8.8691H29.2111C29.573 8.8691 29.8624 8.57963 29.8624 8.21779C29.8624 7.85595 29.573 7.56647 29.2111 7.56647H26.0269V8.8691ZM26.0269 11.9086H29.2835C29.7177 11.9086 30.0072 11.6191 30.0072 11.1849C30.0072 10.7507 29.7177 10.4612 29.2835 10.4612H26.0269V11.9086ZM31.1651 9.59279C31.5993 10.027 31.8888 10.6059 31.8888 11.2573C31.8888 12.5599 30.8756 13.5731 29.573 13.5731H24.2901V5.97437H29.5006C30.7309 5.97437 31.744 6.98752 31.744 8.21779C31.6716 8.72437 31.4545 9.23095 31.1651 9.59279ZM32.3953 22.6191H30.4414L29.8624 21.3165H25.5927L25.0138 22.6191H23.0598L26.823 15.0204H28.5598L32.3953 22.6191ZM27.6914 16.9744L26.3888 19.7244H28.994L27.6914 16.9744ZM30.2966 24.2836H32.4677L28.6322 29.2046V31.8823H26.823V29.2046L22.9874 24.2836H25.1585L27.7638 27.7573L30.2966 24.2836ZM40.3559 24.2836V25.9481H35.2901V27.2507H40.2111V28.9152H35.2901V30.3625H40.3559V32.027H33.4809V24.2836H40.3559ZM45.9282 28.9875H44.5532V31.8823H42.744V24.2836H47.3756C48.6782 24.2836 49.6914 25.3691 49.6914 26.6718C49.6914 27.7573 48.9677 28.6257 48.0269 28.9152L50.2703 31.8823H48.0993L45.9282 28.9875ZM47.2308 25.8757H44.6256V27.3231H47.2308C47.6651 27.3231 47.9545 26.9612 47.9545 26.5994C47.9545 26.2375 47.5927 25.8757 47.2308 25.8757ZM23.7835 31.8823H21.8295L21.2506 30.5796H16.9809L16.4019 31.8823H14.448L18.2835 24.2836H20.0203L23.7835 31.8823ZM19.0795 26.2375L17.7769 28.9875H20.4545L19.0795 26.2375ZM7.57297 27.1783H10.7572C11.119 27.1783 11.4085 26.8889 11.4085 26.527C11.4085 26.1652 11.119 25.8757 10.7572 25.8757H7.57297V27.1783ZM7.57297 30.2178H10.8296C11.2638 30.2178 11.5532 29.9283 11.5532 29.4941C11.5532 29.0599 11.2638 28.7704 10.8296 28.7704H7.57297V30.2178ZM12.7111 27.902C13.1453 28.3362 13.4348 28.9152 13.4348 29.5665C13.4348 30.8691 12.4217 31.8823 11.119 31.8823H5.76376V24.2836H10.9743C12.2046 24.2836 13.2177 25.2968 13.2177 26.527C13.2177 27.0336 13.0006 27.5402 12.7111 27.902ZM31.1651 33.4744V35.1389H26.0993V36.4415H31.0203V38.106H26.0993V39.5533H31.1651V41.2178H24.2901V33.4744H31.1651ZM29.8624 45.2704C29.8624 44.8362 29.573 44.5468 29.1388 44.5468H26.0269V45.9941H29.1388C29.573 45.9941 29.8624 45.7047 29.8624 45.2704ZM24.2177 50.5533V42.9547H29.2835C30.5861 42.9547 31.5993 44.0402 31.5993 45.3428C31.5993 46.356 31.0203 47.152 30.1519 47.5139L32.4677 50.5533H30.2966L28.1256 47.6586H26.0269V50.5533H24.2177Z" fill="#10384F"/>
<path d="M55.1185 26.4546C54.2501 12.1256 42.3093 0.691406 27.6909 0.691406C13.0725 0.691406 1.13173 12.1256 0.263306 26.4546C0.263306 27.0335 0.335674 27.6125 0.408042 28.1914C0.98699 32.9677 2.7962 37.3822 5.5462 41.073C10.5396 47.8756 18.5725 52.2901 27.6909 52.2901C14.9541 52.2901 4.53304 42.3756 3.66462 29.9283C3.59225 29.3493 3.59225 28.7704 3.59225 28.1914C3.59225 27.6125 3.59225 27.0335 3.66462 26.4546C4.53304 14.0072 14.9541 4.09272 27.6909 4.09272C36.8093 4.09272 44.8422 8.5072 49.8357 15.3098C52.5857 19.0006 54.3949 23.4151 54.9738 28.1914C55.0462 28.7704 55.1185 29.3493 55.1185 29.8559C55.1185 29.277 55.1909 28.698 55.1909 28.1191C55.1909 27.6125 55.1909 27.0335 55.1185 26.4546Z" fill="#89D329"/>
<path d="M0.263622 29.9281C1.13204 44.257 13.0728 55.6912 27.6912 55.6912C42.3097 55.6912 54.2504 44.257 55.1189 29.9281C55.1189 29.3491 55.0465 28.7702 54.9741 28.1912C54.3952 23.4149 52.586 19.0004 49.836 15.3096C44.8426 8.50701 36.8097 4.09253 27.6912 4.09253C40.4281 4.09253 50.8491 14.007 51.7175 26.4544C51.7899 27.0333 51.7899 27.6123 51.7899 28.1912C51.7899 28.7702 51.7899 29.3491 51.7175 29.9281C50.8491 42.4478 40.4281 52.2899 27.6912 52.2899C18.5728 52.2899 10.5399 47.8755 5.54651 41.0728C2.79652 37.382 0.987306 32.9675 0.408359 28.1912C0.33599 27.6123 0.263622 27.0333 0.263622 26.5268C0.263622 27.1057 0.191254 27.6846 0.191254 28.2636C0.191254 28.7702 0.191254 29.3491 0.263622 29.9281Z" fill="#00BCFF"/>
</g>
<defs>
<clipPath id="clip0_24463_1128">
<rect width="56" height="56" fill="white"/>
</clipPath>
</defs>
</svg>
