<svg width="151" height="56" viewBox="0 0 151 56" fill="none" xmlns="http://www.w3.org/2000/svg">
<g clip-path="url(#clip0_24463_1135)">
<path fill-rule="evenodd" clip-rule="evenodd" d="M149.95 25.8469V23.5373H149.454L148.876 25.3257H148.859L148.287 23.5373H147.769V25.8469H148.063V23.8572H148.08L148.715 25.8469H148.996L149.635 23.8572H149.652V25.8469H149.95ZM146.856 25.8469V23.8012H147.485V23.5373H145.93V23.8012H146.552V25.8469H146.856ZM23.3205 28.8584L23.3222 28.8016C24.527 28.3932 25.2735 27.6785 25.2735 26.4027V26.2067C25.2735 24.7419 24.0663 23.5369 21.6041 23.5369H18.1985V34.9695H21.8516C24.2444 34.9695 25.887 33.783 25.887 31.8831V31.7686C25.887 30.2865 25.0023 29.2009 23.3205 28.8584ZM19.6887 24.8271H21.3917C23.0146 24.8271 23.8426 25.4336 23.8426 26.5196V26.6345C23.8426 27.9453 22.6937 28.3656 21.1843 28.3656H19.6887V24.8271ZM24.3604 31.7517C24.3604 33.1663 23.2308 33.6953 21.5828 33.6953H19.6887V29.5739H21.6096C23.2321 29.5739 24.3604 30.1058 24.3604 31.5718V31.7517ZM30.757 26.3134H31.1872V27.6526H30.8396C29.4487 27.6526 28.5381 28.3384 28.5381 30.1519V34.9695H27.1481V26.3134H28.5381V27.865H28.6045C28.8528 27.0815 29.4988 26.3134 30.757 26.3134ZM32.4245 26.3134H33.8154V34.9695H32.4245V26.3134ZM33.9681 24.3714C33.9681 25.04 33.6598 25.3533 33.1198 25.3533C32.5798 25.3533 32.2709 25.04 32.2709 24.3714C32.2709 23.7028 32.5798 23.3706 33.1198 23.3706C33.6598 23.3706 33.9681 23.7028 33.9681 24.3714ZM41.5294 32.585C41.5294 34.2511 40.2708 35.1325 38.4334 35.1325C36.5792 35.1325 35.354 34.3487 35.2547 32.585H36.6456C36.6949 33.6468 37.4894 33.9897 38.4334 33.9897C39.3769 33.9897 40.1385 33.5813 40.1385 32.6826C40.1385 30.576 35.354 32.03 35.354 28.6167C35.354 27.1952 36.4136 26.1499 38.3503 26.1499C40.1222 26.1499 41.2973 27.0157 41.43 28.6978H40.0391C39.9565 27.6851 39.2446 27.2932 38.3503 27.2932C37.3404 27.2932 36.7115 27.7506 36.7115 28.6167C36.7115 30.6579 41.5294 29.4002 41.5294 32.585ZM44.7376 26.3134H46.6251V27.522H44.7376V32.3071C44.7376 33.5648 45.069 33.8258 45.9132 33.8258C46.1448 33.8258 46.4098 33.7933 46.6251 33.7768V34.9534C46.3601 35.002 46.0125 35.0345 45.7642 35.0345C44.0424 35.0345 43.3472 34.3651 43.3472 32.5191V27.522H41.8736V26.3134H43.3472V23.5369H44.7376V26.3134ZM50.7331 26.1499C48.5639 26.1499 47.4055 27.62 47.4055 30.0045V31.2783C47.4055 33.6628 48.5639 35.1325 50.7331 35.1325C52.9014 35.1325 54.0603 33.6628 54.0603 31.2783V30.0045C54.0603 27.62 52.9014 26.1499 50.7331 26.1499ZM52.6535 31.1968C52.6535 33.2544 51.9249 33.9242 50.7331 33.9242C49.5408 33.9242 48.813 33.2544 48.813 31.1968V30.086C48.813 28.028 49.5408 27.3586 50.7331 27.3586C51.9249 27.3586 52.6535 28.028 52.6535 30.086V31.1968ZM55.5301 23.5369H56.9209V34.9691H55.5301V23.5369ZM70.3345 23.5369H72.6948V34.9695H71.2213V25.1215H71.1387L68.1749 33.077H66.3701L63.4406 25.1215H63.3579V34.9695H61.9011V23.5369H64.3766L67.2977 31.478H67.3808L70.3345 23.5369ZM79.4573 26.3134H80.8644L76.9743 37.7459H75.5341L76.5111 35.0345L73.6629 26.3134H75.1369L77.2393 33.0588H77.3056L79.4573 26.3134ZM84.6006 26.1499C82.4323 26.1499 81.2734 27.6851 81.2734 30.0045V31.2783C81.2734 33.6628 82.4323 35.1325 84.6006 35.1325C86.3391 35.1325 87.3653 34.1852 87.7129 32.5685H86.2895C86.0411 33.5648 85.4782 33.9242 84.6006 33.9242C83.4092 33.9242 82.6805 33.2544 82.6805 31.1968V31.0823H87.7625V30.0045C87.7625 27.6851 86.7697 26.1499 84.6006 26.1499ZM84.6006 27.3586C85.7273 27.3586 86.3374 28.0128 86.3541 30.0045H82.6826C82.7018 28.0128 83.4254 27.3586 84.6006 27.3586ZM92.9188 26.3134H93.3486V27.6526H93.0014C91.611 27.6526 90.7004 28.3384 90.7004 30.1519V34.9695H89.3099V26.3134H90.7004V27.865H90.7667C91.0146 27.0815 91.6606 26.3134 92.9188 26.3134ZM100.368 32.585C100.368 34.2511 99.1104 35.1325 97.2722 35.1325C95.4181 35.1325 94.1937 34.3487 94.0935 32.585H95.4844C95.5345 33.6468 96.329 33.9897 97.2722 33.9897C98.2157 33.9897 98.9773 33.5813 98.9773 32.6826C98.9773 30.576 94.1937 32.03 94.1937 28.6167C94.1937 27.1952 95.2532 26.1499 97.1895 26.1499C98.9606 26.1499 100.137 27.0157 100.269 28.6978H98.878C98.7957 27.6851 98.0838 27.2932 97.1895 27.2932C96.1797 27.2932 95.5508 27.7506 95.5508 28.6167C95.5508 30.6579 100.368 29.4002 100.368 32.585ZM111.421 31.9477C111.421 33.9897 109.997 35.1325 107.811 35.1325C105.759 35.1325 104.07 34.1527 103.855 31.9642H105.394C105.577 33.2544 106.504 33.8588 107.795 33.8588C109.269 33.8588 109.931 32.993 109.931 32.03C109.931 28.7794 104.037 30.6579 104.037 26.3953C104.037 24.5661 105.511 23.3739 107.563 23.3739C109.549 23.3739 111.205 24.3372 111.305 26.5912H109.765C109.633 25.203 108.739 24.6477 107.547 24.6477C106.14 24.6477 105.527 25.4645 105.527 26.3294C105.527 29.2042 111.421 27.5056 111.421 31.9477ZM117.704 27.3586H117.636C117.26 26.5945 116.546 26.1499 115.635 26.1499C113.465 26.1499 112.472 27.62 112.472 30.0045V31.2783C112.472 33.6628 113.465 35.1325 115.635 35.1325C116.546 35.1325 117.261 34.6879 117.636 33.9242H117.704V34.9695V37.7459H119.095V26.3134H117.704V27.3586ZM115.8 33.9242C114.608 33.9242 113.879 33.2544 113.879 31.1968V30.086C113.879 28.028 114.608 27.3586 115.8 27.3586C116.992 27.3586 117.721 28.028 117.721 30.086V31.1968C117.721 33.2544 116.992 33.9242 115.8 33.9242ZM125.481 26.3134H126.872V34.9695H125.481V33.8588H125.415C125.084 34.5607 124.372 35.1325 123.263 35.1325C121.625 35.1325 120.614 34.2177 120.614 32.1762V26.3134H122.022V31.9806C122.022 33.3689 122.602 33.9732 123.644 33.9732C124.654 33.9732 125.481 33.3034 125.481 31.6212V26.3134ZM128.658 26.3134H130.048V34.9695H128.658V26.3134ZM135.373 26.1499C134.448 26.1499 133.743 26.5945 133.371 27.3586H133.304V26.3134V23.5369H131.914V34.9695H133.304V33.9242H133.371C133.743 34.6879 134.448 35.1325 135.373 35.1325C137.542 35.1325 138.535 33.6628 138.535 31.2783V30.0045C138.535 27.62 137.542 26.1499 135.373 26.1499ZM137.128 31.1968C137.128 33.2544 136.4 33.9242 135.208 33.9242C134.016 33.9242 133.288 33.2544 133.288 31.1968V30.086C133.288 28.028 134.016 27.3586 135.208 27.3586C136.4 27.3586 137.128 28.028 137.128 30.086V31.1968ZM143.36 26.1499C142.434 26.1499 141.729 26.5945 141.357 27.3586H141.29V26.3134V23.5369H139.9V34.9695H141.29V33.9242H141.357C141.729 34.6879 142.434 35.1325 143.36 35.1325C145.528 35.1325 146.522 33.6628 146.522 31.2783V30.0045C146.522 27.62 145.528 26.1499 143.36 26.1499ZM145.115 31.1968C145.115 33.2544 144.387 33.9242 143.194 33.9242C142.003 33.9242 141.274 33.2544 141.274 31.1968V30.086C141.274 28.028 142.003 27.3586 143.194 27.3586C144.387 27.3586 145.115 28.028 145.115 30.086V31.1968ZM130.202 24.3714C130.202 25.04 129.893 25.3533 129.353 25.3533C128.814 25.3533 128.505 25.04 128.505 24.3714C128.505 23.7028 128.814 23.3706 129.353 23.3706C129.893 23.3706 130.202 23.7028 130.202 24.3714Z" fill="#595454"/>
<path fill-rule="evenodd" clip-rule="evenodd" d="M5.42882 37.4646C5.27399 37.7803 4.94432 37.9837 4.58919 37.9837C4.44731 37.9837 4.31085 37.9528 4.18273 37.8911C1.25615 36.4913 -0.289978 34.0253 -0.289978 30.7582V27.0682C-0.289978 26.5606 0.128584 26.1481 0.642708 26.1481C1.15683 26.1481 1.57539 26.5606 1.57539 27.0682V30.7582C1.57539 33.3065 2.72633 35.1492 4.9969 36.2357C5.45928 36.4572 5.65333 37.0084 5.42882 37.4646ZM2.66916 28.9126C2.66916 29.4342 3.09773 29.8566 3.62604 29.8566C4.15477 29.8566 4.58335 29.4342 4.58335 28.9126V21.3824C4.58335 20.8604 4.15477 20.438 3.62604 20.438C3.09773 20.438 2.66916 20.8604 2.66916 21.3824V28.9126ZM5.63038 28.6936C5.63038 29.2147 6.05895 29.6375 6.58726 29.6375C7.11599 29.6375 7.54457 29.2147 7.54457 28.6936V18.5693C7.54457 18.0477 7.11599 17.6257 6.58726 17.6257C6.05895 17.6257 5.63038 18.0477 5.63038 18.5693V28.6936ZM8.5916 29.3901C8.5916 29.9117 9.02017 30.3341 9.54848 30.3341C10.0772 30.3341 10.5058 29.9117 10.5058 29.3901V20.3017C10.5058 19.7801 10.0772 19.3573 9.54848 19.3573C9.02017 19.3573 8.5916 19.7801 8.5916 20.3017V29.3901ZM11.5528 30.5931C11.5528 31.099 11.9685 31.5087 12.4809 31.5087C12.9938 31.5087 13.4094 31.099 13.4094 30.5931V24.4507C13.4094 23.9447 12.9938 23.5347 12.4809 23.5347C11.9685 23.5347 11.5528 23.9447 11.5528 24.4507V30.5931Z" fill="#BE2BBB"/>
</g>
<defs>
<clipPath id="clip0_24463_1135">
<rect width="151" height="56" fill="white"/>
</clipPath>
</defs>
</svg>
