<svg width="116" height="56" viewBox="0 0 116 56" fill="none" xmlns="http://www.w3.org/2000/svg">
<path d="M67.8933 23.6047C66.56 21.7733 64.7467 20.6744 62.24 20.6744C58.1333 20.6744 54.7733 23.9709 54.7733 28.0523C54.7733 32.1337 58.1333 35.4302 62.24 35.4302C65.2267 35.4302 67.7867 33.7035 68.96 31.1919H61.28V25.1221H75.36V15.7035H87.8933V21.7733H81.3333V25.1221H87.8933V31.1919H81.3333V34.3314H87.8933V40.2442C88.1067 40.2442 75.36 40.2442 75.36 40.2442V31.3488C73.8667 38.0465 68.3733 41.5 62.24 41.5C56.16 41.5 51.04 37.9419 49.6 31.7151V40.3488H43.4667V26.0116C43.4667 26.0116 39.8933 29.0988 39.8933 40.3488H33.5467C33.5467 29.0988 29.9733 26.0116 29.9733 26.0116V40.3488H23.7867V15.4419C30.88 15.4419 35.5733 23.2907 36.6933 27.8953C37.8133 23.2907 42.5067 15.4419 49.6 15.4419V23.7093C50.8267 18.2151 56.4267 14.5 62.2933 14.5C68.2667 14.5 73.5467 18.9477 74.6667 23.6047H67.8933Z" fill="#0063C3"/>
<path d="M101.493 40.3488C100.587 33.5988 96.0534 28.7849 96.0534 28.7849V40.3488H89.4933V15.8081C90.9333 15.8081 96.16 18.5814 101.493 26.1163V15.8081H107.893V40.2965L101.493 40.3488Z" fill="#0063C3"/>
<path d="M8.10667 34.1744C7.94667 34.8547 6.82667 38.6221 6.4 40.3488H0C0.853333 37.2616 2.50667 31.9767 4.26667 28.4186C5.97333 24.9128 8.10666 21.0407 11.68 18.4244C13.3333 17.2209 16.48 14.8663 22.3467 15.3895V40.3488H16.16V34.1744H8.10667ZM16.16 28.4709V22.6628C14.1867 24.0233 12.0533 26.5349 10.7733 28.4709H16.16Z" fill="#0063C3"/>
<path d="M110.613 17.3256C110.613 15.8605 111.84 14.7093 113.333 14.7093C114.827 14.7093 116 15.9128 116 17.3256C116 18.7907 114.773 19.9942 113.333 19.9942C111.84 19.9419 110.613 18.7907 110.613 17.3256ZM115.52 17.3256C115.52 16.1221 114.56 15.1802 113.333 15.1802C112.107 15.1802 111.147 16.1221 111.147 17.3256C111.147 18.5291 112.107 19.4709 113.333 19.4709C114.56 19.4709 115.52 18.4767 115.52 17.3256ZM114.667 18.7384H114.027L113.387 17.5349H112.8V18.7384H112.213V15.9128H113.6C113.867 15.9128 114.187 15.9128 114.4 16.0698C114.667 16.2267 114.72 16.4884 114.72 16.8023C114.72 17.3256 114.453 17.5349 113.92 17.5872L114.667 18.7384ZM113.653 17.1163C113.973 17.1163 114.187 17.064 114.187 16.6977C114.187 16.3314 113.76 16.3314 113.493 16.3314H112.8V17.1163H113.653Z" fill="#0063C3"/>
</svg>
