<svg width="181" height="36" viewBox="0 0 181 36" fill="none" xmlns="http://www.w3.org/2000/svg">
<g clip-path="url(#clip0_24463_1344)">
<path d="M126.268 8.25531V0.627478C136.252 0.477705 136.656 0.34595 139.957 0.430634C145.031 0.55811 148.091 2.00088 150.291 4.21865C152.412 6.35624 154.094 9.6161 154.016 14.3476C153.97 17.0719 152.28 27.0938 140.04 27.7193C138.604 27.8467 135.309 27.7343 133.216 27.783L135.285 19.957C140.134 20.3592 143.982 18.836 144.187 14.2669C144.411 9.13751 139.843 7.50892 135.287 8.31207L126.268 8.25531Z" fill="white"/>
<path d="M135.281 35.1597L126.268 35.1583V6.62964L135.281 6.68775V35.1597Z" fill="white"/>
<path d="M167.677 12.7897L175.075 15.4126C179.999 17.3477 181.046 21.2745 180.999 24.6564C180.89 32.5005 174.603 35.4412 169.59 35.8657C163.891 36.3473 159.48 35.3971 157.997 35.1572V26.6208C162.508 27.9845 167.757 27.9303 169.529 27.2424C170.87 26.7222 171.888 25.9274 171.807 24.8841C171.763 24.3181 171.706 23.5983 170.011 22.8772L163.189 20.4137C158.808 18.8434 157.118 14.7029 157.3 11.0147C157.671 3.56299 163.652 -0.208585 169.623 0.00942986C171.465 0.0758705 173.947 0.032853 177.556 0.529694V8.9868C173.512 8.05055 171.616 8.06586 169.529 8.32397C167.196 8.6109 166.148 9.81224 166.196 11.0956C166.22 11.746 166.872 12.459 167.678 12.7782" fill="white"/>
<path d="M41.1607 13.4957H50.8662L50.8635 0.659424H59.8777V35.1653H50.8662V21.3123H41.1607L41.1594 35.1653H32.1356V0.659424H41.1594L41.1607 13.4957Z" fill="white"/>
<path d="M77.3875 0.659424H68.3678V35.1653H77.3875V0.659424Z" fill="white"/>
<path d="M117.692 0.659424H108.67V35.1653H117.692V0.659424Z" fill="white"/>
<path d="M94.8976 27.3309H104.198V35.1626L85.875 35.1653V0.659424H94.8976V27.3309Z" fill="white"/>
<path d="M0 8.25531V0.627478C9.98532 0.477705 10.3883 0.34595 13.6906 0.430634C18.7627 0.55811 21.8227 2.00088 24.0244 4.21865C26.1436 6.35624 27.8272 9.6161 27.7491 14.3476C27.7016 17.0719 26.0113 27.0938 13.7714 27.7193C12.3376 27.8467 9.14503 27.7343 7.05221 27.783L9.0224 19.957C13.873 20.3592 17.7176 18.836 17.9181 14.2669C18.1423 9.13751 13.5734 7.50892 9.01833 8.31207L0 8.25531Z" fill="white"/>
<path d="M9.0267 35.1596L0 35.1583V7.22168L9.01833 7.27866L9.0267 35.1596Z" fill="white"/>
</g>
<defs>
<clipPath id="clip0_24463_1344">
<rect width="181" height="36" fill="white"/>
</clipPath>
</defs>
</svg>
