<svg width="36" height="38" viewBox="0 0 36 38" fill="none" xmlns="http://www.w3.org/2000/svg">
<path fill-rule="evenodd" clip-rule="evenodd" d="M31.4436 32.5802C30.0706 32.683 24.2748 33.6709 21.2776 35.6533C20.2064 36.3611 18.0267 38 18.0267 38C18.0267 38 15.6169 36.0146 14.3734 35.1394C12.9061 34.1094 10.0214 32.9063 4.62618 32.6184C2.32418 32.496 0.72728 30.7123 0.72728 28.5379L0.773502 5.18579C0.694653 3.80148 1.11155 1.86306 2.55619 0.772446C4.01171 -0.327953 5.9657 -0.251591 8.36105 0.994679C8.52418 1.07985 24.6572 9.72934 24.6572 18.602C24.6572 20.75 23.9222 22.6541 22.5891 23.9631C21.4163 25.1124 19.8656 25.7468 18.2207 25.7468C14.8302 25.7468 12.2735 23.0898 12.2735 19.5664C12.2735 16.3905 13.6294 14.5881 14.6907 13.6238C14.6907 13.6238 15.3785 14.266 16.399 15.432C17.2074 16.3533 17.7467 17.2197 17.7467 17.2197C17.6823 17.2657 16.6818 18.1918 16.6818 19.4596C16.6818 20.7196 17.8944 21.0633 18.2515 21.0633C18.7944 21.0633 19.2765 20.7245 19.63 20.378C20.0315 19.9854 20.2345 19.3872 20.2345 18.602C20.2345 14.6106 11.263 7.85063 6.4551 5.34635C5.83972 5.02621 5.4337 4.89992 5.19081 4.85195C5.1899 4.88132 5.1899 4.90971 5.19081 4.93419L5.19897 5.03796L5.19625 5.09964V27.8203C8.41905 27.9819 11.1905 28.5174 13.4952 29.3799C15.6912 30.2022 18.1464 32.0858 18.1464 32.0858C18.1464 32.0858 20.2481 30.6428 22.5918 29.7685C25.762 28.5859 29.2676 27.9564 30.85 27.7959V5.61068C28.4021 5.91417 25.2898 8.46741 23.3893 10.165C23.3893 10.165 22.7449 9.34557 22 8.56727C21.0774 7.60295 20.0161 6.63863 20.0161 6.63863C20.675 6.04927 26.5161 0.759719 31.2923 0.759719C33.7103 0.759719 35.2727 2.46318 35.2727 5.09964V28.0886C35.2102 29.4954 34.4272 32.357 31.4436 32.5802Z" fill="white"/>
</svg>
